<svg xmlns="http://www.w3.org/2000/svg" width="231" height="47" viewBox="0 0 231 47">
  <defs>
    <style>
      .cls-1 {
        fill: #fff;
      }

      .cls-1, .cls-2 {
        fill-rule: evenodd;
      }

      .cls-2 {
        fill: #f26522;
      }
    </style>
  </defs>
  <path id="_Consultax" data-name=" Consultax" class="cls-1" d="M63.905,34.5a14.835,14.835,0,0,0,6.053-1.19,11.643,11.643,0,0,0,4.478-3.43l-4.408-3.99a7.251,7.251,0,0,1-5.773,2.87,7.12,7.12,0,0,1-3.551-.875,6.066,6.066,0,0,1-2.414-2.468,7.591,7.591,0,0,1-.857-3.657A7.594,7.594,0,0,1,58.29,18.1,6.072,6.072,0,0,1,60.7,15.632a7.125,7.125,0,0,1,3.551-.875,7.252,7.252,0,0,1,5.773,2.87l4.408-3.99a11.653,11.653,0,0,0-4.478-3.43,14.833,14.833,0,0,0-6.053-1.19A14.487,14.487,0,0,0,57,10.645a12.165,12.165,0,0,0-4.811,4.533,12.5,12.5,0,0,0-1.749,6.58,12.5,12.5,0,0,0,1.749,6.58A12.162,12.162,0,0,0,57,32.87a14.488,14.488,0,0,0,6.91,1.627h0Zm21.341-.175a11.908,11.908,0,0,0,5.528-1.26,9.386,9.386,0,0,0,3.814-3.5,9.559,9.559,0,0,0,1.364-5.075,9.47,9.47,0,0,0-1.364-5.058,9.309,9.309,0,0,0-3.814-3.465,12.879,12.879,0,0,0-11.038,0,9.349,9.349,0,0,0-5.2,8.523,9.377,9.377,0,0,0,5.213,8.575,11.828,11.828,0,0,0,5.493,1.26h0Zm0-5.285a3.737,3.737,0,0,1-2.869-1.208,4.725,4.725,0,0,1-1.12-3.342,4.609,4.609,0,0,1,1.12-3.29,4.053,4.053,0,0,1,5.738,0,4.612,4.612,0,0,1,1.12,3.29,4.728,4.728,0,0,1-1.12,3.342,3.738,3.738,0,0,1-2.869,1.208h0Zm25.26-14.315a9.011,9.011,0,0,0-3.359.612,7.527,7.527,0,0,0-2.659,1.768V15.037H98.156v18.97H104.8v-9.17a4.81,4.81,0,0,1,1.032-3.36,3.555,3.555,0,0,1,2.746-1.12q3.114,0,3.114,3.885v9.765h6.648V23.157q0-4.235-2.152-6.335a7.793,7.793,0,0,0-5.685-2.1h0Zm18.018,19.6a14.348,14.348,0,0,0,5.09-.8,7.063,7.063,0,0,0,3.2-2.223,5.135,5.135,0,0,0,1.085-3.2,4.734,4.734,0,0,0-1.137-3.378,5.934,5.934,0,0,0-2.677-1.663,29.4,29.4,0,0,0-3.883-.8,18.385,18.385,0,0,1-2.659-.543,0.968,0.968,0,0,1-.805-0.927,1.1,1.1,0,0,1,.735-0.962,5.44,5.44,0,0,1,2.309-.368,11.056,11.056,0,0,1,5.458,1.4l1.994-4.515a11.769,11.769,0,0,0-3.393-1.19,20.152,20.152,0,0,0-4.094-.42,13.563,13.563,0,0,0-4.985.822,7.2,7.2,0,0,0-3.167,2.24,5.186,5.186,0,0,0-1.084,3.238,4.808,4.808,0,0,0,1.154,3.43,5.96,5.96,0,0,0,2.747,1.68,25.664,25.664,0,0,0,3.866.735,17.034,17.034,0,0,1,2.606.508,0.96,0.96,0,0,1,.822.892,1.042,1.042,0,0,1-.682.963,5.652,5.652,0,0,1-2.291.332,13.755,13.755,0,0,1-3.534-.473,11.248,11.248,0,0,1-3.079-1.277l-1.994,4.55a12.361,12.361,0,0,0,3.708,1.417,20.449,20.449,0,0,0,4.689.543h0ZM153.19,15.037v9.135a4.908,4.908,0,0,1-1,3.378,3.31,3.31,0,0,1-2.572,1.1,2.858,2.858,0,0,1-2.344-.98,4.882,4.882,0,0,1-.8-3.115v-9.52h-6.648v10.6q0,4.34,2.187,6.51a7.951,7.951,0,0,0,5.86,2.17,8.226,8.226,0,0,0,3.114-.595,6.818,6.818,0,0,0,2.519-1.75v2.03h6.332V15.037H153.19Zm10.041,18.97h6.647V8.037h-6.647v25.97Zm23.405-5.425a3.522,3.522,0,0,1-2.03.595,1.9,1.9,0,0,1-1.452-.577,2.236,2.236,0,0,1-.542-1.593v-6.3h4.338v-4.97h-4.338V10.8h-6.647v4.935H173.2v4.97h2.764v6.37a6.978,6.978,0,0,0,1.994,5.425,8.165,8.165,0,0,0,5.7,1.82,11.366,11.366,0,0,0,2.571-.28,6.693,6.693,0,0,0,2.047-.8Zm11.405-13.86a18.209,18.209,0,0,0-4.531.577,12.408,12.408,0,0,0-3.831,1.627l2.239,4.515a7.375,7.375,0,0,1,2.379-1.207,9.236,9.236,0,0,1,2.764-.437q3.849,0,4.024,3.01h-3.779q-4.3,0-6.367,1.487a4.856,4.856,0,0,0-2.065,4.183,5.511,5.511,0,0,0,.823,2.992,5.642,5.642,0,0,0,2.431,2.082,8.764,8.764,0,0,0,3.814.77q4.163,0,5.6-2.765v2.45h6.192V23.472q0-4.445-2.484-6.6t-7.207-2.152h0Zm-0.245,15.4a2.857,2.857,0,0,1-1.819-.525,1.691,1.691,0,0,1-.665-1.4q0-1.924,2.9-1.925h2.869v1.645a3.119,3.119,0,0,1-1.26,1.645,3.678,3.678,0,0,1-2.029.56h0Zm32.887,3.885-7.242-9.73,7-9.24h-7.032l-3.5,4.8-3.359-4.795h-7.487l7,9.485-7.208,9.485h7.208l3.638-4.97,3.394,4.97h7.592Z"/>
  <path class="cls-1" d="M18.2,23.268L0.007,34.036,20.334,46.989,40,35.286,18.2,23.268"/>
  <path class="cls-2" d="M39.086,11.257L20.274-.006,0,13.04V34.458Z"/>
</svg>
